<svg width="20" height="21" viewBox="0 0 20 21" fill="none" xmlns="http://www.w3.org/2000/svg">
<g clip-path="url(#clip0_934_5325)">
<path d="M18.4725 0.60625C18.5578 0.663297 18.6277 0.740462 18.6761 0.830933C18.7245 0.921403 18.7499 1.0224 18.75 1.125V10.5C18.75 10.6248 18.7126 10.7468 18.6426 10.8501C18.5727 10.9535 18.4734 11.0336 18.3575 11.08L18.3537 11.0813L18.3463 11.085L18.3175 11.0963C18.1532 11.1616 17.9877 11.2241 17.8212 11.2837C17.4913 11.4025 17.0325 11.5625 16.5125 11.7213C15.4925 12.0363 14.1637 12.375 13.125 12.375C12.0662 12.375 11.19 12.025 10.4275 11.7188L10.3925 11.7063C9.6 11.3875 8.925 11.125 8.125 11.125C7.25 11.125 6.0775 11.4125 5.07875 11.7213C4.63157 11.8606 4.18847 12.0128 3.75 12.1775V19.875C3.75 20.0408 3.68415 20.1997 3.56694 20.3169C3.44973 20.4342 3.29076 20.5 3.125 20.5C2.95924 20.5 2.80027 20.4342 2.68306 20.3169C2.56585 20.1997 2.5 20.0408 2.5 19.875V1.125C2.5 0.95924 2.56585 0.800269 2.68306 0.683058C2.80027 0.565848 2.95924 0.5 3.125 0.5C3.29076 0.5 3.44973 0.565848 3.56694 0.683058C3.68415 0.800269 3.75 0.95924 3.75 1.125V1.4775C4.0325 1.37875 4.37 1.265 4.7375 1.1525C5.7575 0.84 7.0875 0.5 8.125 0.5C9.175 0.5 10.03 0.84625 10.7763 1.14875L10.83 1.17125C11.6075 1.485 12.285 1.75 13.125 1.75C14 1.75 15.1725 1.4625 16.1713 1.15375C16.7404 0.976015 17.3028 0.77755 17.8575 0.55875L17.8813 0.55L17.8862 0.5475H17.8875" fill="#1D1D1D"/>
</g>
<defs>
<clipPath id="clip0_934_5325">
<rect width="20" height="20" fill="white" transform="translate(0 0.5)"/>
</clipPath>
</defs>
</svg>
