<svg width="42" height="42" viewBox="0 0 42 42" fill="none" xmlns="http://www.w3.org/2000/svg">
<circle cx="21" cy="21" r="21" fill="white"/>
<circle cx="21" cy="21" r="20.5" stroke="#1D1D1D" stroke-opacity="0.5"/>
<path d="M13 23C14.1046 23 15 22.1046 15 21C15 19.8954 14.1046 19 13 19C11.8954 19 11 19.8954 11 21C11 22.1046 11.8954 23 13 23Z" fill="#1D1D1D" fill-opacity="0.5"/>
<path d="M21 23C22.1046 23 23 22.1046 23 21C23 19.8954 22.1046 19 21 19C19.8954 19 19 19.8954 19 21C19 22.1046 19.8954 23 21 23Z" fill="#1D1D1D" fill-opacity="0.5"/>
<path d="M29 23C30.1046 23 31 22.1046 31 21C31 19.8954 30.1046 19 29 19C27.8954 19 27 19.8954 27 21C27 22.1046 27.8954 23 29 23Z" fill="#1D1D1D" fill-opacity="0.5"/>
</svg>
