<svg width="23" height="22" viewBox="0 0 23 22" fill="none" xmlns="http://www.w3.org/2000/svg">
<path d="M21.5833 9.16675C21.5833 8.68052 21.3901 8.2142 21.0463 7.87039C20.7025 7.52657 20.2362 7.33341 19.75 7.33341H13.9566L14.8366 3.14425C14.855 3.05258 14.8641 2.95175 14.8641 2.85091C14.8641 2.47508 14.7083 2.12675 14.4608 1.87925L13.4891 0.916748L7.45746 6.94841C7.11829 7.28758 6.91663 7.74591 6.91663 8.25008V17.4167C6.91663 17.903 7.10978 18.3693 7.4536 18.7131C7.79741 19.0569 8.26373 19.2501 8.74996 19.2501H17C17.7608 19.2501 18.4116 18.7917 18.6866 18.1317L21.455 11.6692C21.5375 11.4584 21.5833 11.2384 21.5833 11.0001V9.16675ZM1.41663 19.2501H5.08329V8.25008H1.41663V19.2501Z" fill="#0D6EFD"/>
</svg>
