<svg width="23" height="22" viewBox="0 0 23 22" fill="none" xmlns="http://www.w3.org/2000/svg">
<path d="M12.978 7.12784L12.7247 8.33341H13.9566H19.75C19.971 8.33341 20.1829 8.42121 20.3392 8.57749C20.4955 8.73377 20.5833 8.94573 20.5833 9.16675V11.0001C20.5833 11.1003 20.5658 11.1935 20.5285 11.2925L17.7674 17.738L17.7674 17.738L17.7636 17.7471C17.6405 18.0425 17.3485 18.2501 17 18.2501H8.74996C8.52894 18.2501 8.31698 18.1623 8.1607 18.006C8.00442 17.8497 7.91663 17.6378 7.91663 17.4167V8.25008C7.91663 8.02047 8.00623 7.81386 8.16457 7.65552L13.4925 2.32762L13.7537 2.58635C13.7541 2.58673 13.7544 2.58711 13.7548 2.58749C13.8224 2.65563 13.8641 2.75227 13.8641 2.85091C13.8641 2.89204 13.8603 2.92531 13.8566 2.94525L12.978 7.12784ZM4.08329 9.25008V18.2501H2.41663V9.25008H4.08329Z" stroke="#1D1D1D" stroke-opacity="0.5" stroke-width="2"/>
</svg>
