<svg width="32" height="32" viewBox="0 0 32 32" fill="none" xmlns="http://www.w3.org/2000/svg">
<circle cx="16" cy="16" r="16" transform="rotate(90 16 16)" fill="#E2E3E5"/>
<path d="M18.3686 10.4315C18.5327 10.5956 18.6248 10.8181 18.6248 11.0501C18.6248 11.2821 18.5327 11.5046 18.3686 11.6687L14.0374 16L18.3686 20.3312C18.528 20.4963 18.6162 20.7173 18.6142 20.9467C18.6122 21.1761 18.5202 21.3956 18.358 21.5578C18.1957 21.7201 17.9763 21.8121 17.7469 21.8141C17.5174 21.8161 17.2964 21.7279 17.1314 21.5685L12.1815 16.6186C12.0175 16.4545 11.9253 16.232 11.9253 16C11.9253 15.768 12.0175 15.5454 12.1815 15.3814L17.1314 10.4315C17.2955 10.2674 17.518 10.1753 17.75 10.1753C17.982 10.1753 18.2045 10.2674 18.3686 10.4315Z" fill="black"/>
</svg>
