<svg width="18" height="16" viewBox="0 0 18 16" fill="none" xmlns="http://www.w3.org/2000/svg">
<path d="M9.96927 15.2806C9.89954 15.211 9.84422 15.1282 9.80648 15.0372C9.76873 14.9461 9.74931 14.8486 9.74931 14.75C9.74931 14.6514 9.76873 14.5538 9.80648 14.4628C9.84422 14.3717 9.89954 14.289 9.96927 14.2194L15.4396 8.74999L0.749899 8.74999C0.550987 8.74999 0.36022 8.67097 0.219568 8.53032C0.0789162 8.38967 -0.000101426 8.1989 -0.000101417 7.99999C-0.000101409 7.80108 0.0789162 7.61031 0.219568 7.46966C0.36022 7.32901 0.550987 7.24999 0.749899 7.24999L15.4396 7.24999L9.96927 1.78061C9.82854 1.63988 9.74948 1.44901 9.74948 1.24999C9.74948 1.05097 9.82854 0.860095 9.96927 0.719364C10.11 0.578634 10.3009 0.499572 10.4999 0.499572C10.6989 0.499572 10.8898 0.578634 11.0305 0.719364L17.7805 7.46936C17.8503 7.53902 17.9056 7.62174 17.9433 7.71278C17.9811 7.80383 18.0005 7.90143 18.0005 7.99999C18.0005 8.09855 17.9811 8.19615 17.9433 8.2872C17.9056 8.37824 17.8503 8.46096 17.7805 8.53061L11.0305 15.2806C10.9609 15.3503 10.8782 15.4057 10.7871 15.4434C10.6961 15.4812 10.5985 15.5006 10.4999 15.5006C10.4013 15.5006 10.3037 15.4812 10.2127 15.4434C10.1216 15.4057 10.0389 15.3503 9.96927 15.2806Z" fill="#1D1D1D"/>
</svg>
