<svg width="8" height="12" viewBox="0 0 8 12" fill="none" xmlns="http://www.w3.org/2000/svg">
<path d="M7.36857 0.4315C7.5326 0.595587 7.62476 0.818106 7.62476 1.05013C7.62476 1.28214 7.5326 1.50466 7.36857 1.66875L3.03732 6L7.36857 10.3313C7.52796 10.4963 7.61615 10.7173 7.61416 10.9467C7.61216 11.1761 7.52014 11.3956 7.35791 11.5578C7.19568 11.7201 6.97622 11.8121 6.74679 11.8141C6.51737 11.8161 6.29635 11.7279 6.13132 11.5685L1.18144 6.61863C1.01741 6.45454 0.925254 6.23202 0.925254 6C0.925254 5.76798 1.01741 5.54546 1.18144 5.38138L6.13132 0.4315C6.2954 0.267463 6.51792 0.175312 6.74994 0.175312C6.98196 0.175312 7.20448 0.267463 7.36857 0.4315Z" fill="#1D1D1D"/>
</svg>
