<svg width="24" height="24" viewBox="0 0 24 24" fill="none" xmlns="http://www.w3.org/2000/svg">
<path d="M23.0625 12C23.0632 11.1663 22.858 10.3452 22.4651 9.60988C22.0722 8.87452 21.5037 8.24758 20.8102 7.78476C20.1168 7.32194 19.3197 7.03756 18.4899 6.95688C17.66 6.87621 16.8231 7.00173 16.0535 7.32231C15.2838 7.64289 14.6053 8.14859 14.0781 8.7945C13.5509 9.44041 13.1913 10.2065 13.0315 11.0248C12.8716 11.8431 12.9163 12.6882 13.1615 13.485C13.4068 14.2819 13.8451 15.0058 14.4375 15.5925V21C14.4375 21.0959 14.4619 21.1901 14.5086 21.2739C14.5552 21.3576 14.6225 21.4281 14.7041 21.4785C14.7856 21.529 14.8786 21.5577 14.9744 21.5621C15.0702 21.5664 15.1655 21.5463 15.2512 21.5034L18 20.1291L20.7488 21.5034C20.8268 21.5423 20.9128 21.5626 21 21.5625C21.1044 21.5627 21.2068 21.5334 21.2953 21.4781C21.3769 21.4278 21.4443 21.3575 21.491 21.2738C21.5378 21.1901 21.5624 21.0959 21.5625 21V15.5925C22.0379 15.1228 22.4154 14.5634 22.6729 13.9467C22.9304 13.33 23.0628 12.6683 23.0625 12ZM14.0625 12C14.0625 11.2212 14.2934 10.46 14.7261 9.81244C15.1587 9.16492 15.7737 8.66024 16.4932 8.36222C17.2127 8.0642 18.0044 7.98623 18.7682 8.13816C19.532 8.29009 20.2336 8.6651 20.7842 9.21577C21.3349 9.76644 21.7099 10.468 21.8618 11.2318C22.0138 11.9956 21.9358 12.7873 21.6378 13.5068C21.3398 14.2263 20.8351 14.8413 20.1876 15.2739C19.54 15.7066 18.7788 15.9375 18 15.9375C16.9557 15.9375 15.9542 15.5227 15.2158 14.7842C14.4773 14.0458 14.0625 13.0443 14.0625 12ZM20.4375 20.0897L18.2512 18.9966C18.1732 18.9576 18.0872 18.9373 18 18.9373C17.9128 18.9373 17.8268 18.9576 17.7488 18.9966L15.5625 20.0897V16.4334C16.3091 16.8448 17.1476 17.0606 18 17.0606C18.8524 17.0606 19.6909 16.8448 20.4375 16.4334V20.0897ZM12.5625 18C12.5625 18.1492 12.5032 18.2923 12.3977 18.3977C12.2923 18.5032 12.1492 18.5625 12 18.5625H3.75C3.4019 18.5625 3.06806 18.4242 2.82192 18.1781C2.57578 17.9319 2.4375 17.5981 2.4375 17.25V5.25C2.4375 4.9019 2.57578 4.56806 2.82192 4.32192C3.06806 4.07578 3.4019 3.9375 3.75 3.9375H20.25C20.5981 3.9375 20.9319 4.07578 21.1781 4.32192C21.4242 4.56806 21.5625 4.9019 21.5625 5.25C21.5625 5.39918 21.5032 5.54226 21.3977 5.64775C21.2923 5.75324 21.1492 5.8125 21 5.8125C20.8508 5.8125 20.7077 5.75324 20.6023 5.64775C20.4968 5.54226 20.4375 5.39918 20.4375 5.25C20.4375 5.20027 20.4177 5.15258 20.3826 5.11742C20.3474 5.08225 20.2997 5.0625 20.25 5.0625H3.75C3.70027 5.0625 3.65258 5.08225 3.61742 5.11742C3.58225 5.15258 3.5625 5.20027 3.5625 5.25V17.25C3.5625 17.2997 3.58225 17.3474 3.61742 17.3826C3.65258 17.4177 3.70027 17.4375 3.75 17.4375H12C12.1492 17.4375 12.2923 17.4968 12.3977 17.6023C12.5032 17.7077 12.5625 17.8508 12.5625 18ZM11.0625 12.75C11.0625 12.8992 11.0032 13.0423 10.8977 13.1477C10.7923 13.2532 10.6492 13.3125 10.5 13.3125H6.75C6.60082 13.3125 6.45774 13.2532 6.35225 13.1477C6.24676 13.0423 6.1875 12.8992 6.1875 12.75C6.1875 12.6008 6.24676 12.4577 6.35225 12.3523C6.45774 12.2468 6.60082 12.1875 6.75 12.1875H10.5C10.6492 12.1875 10.7923 12.2468 10.8977 12.3523C11.0032 12.4577 11.0625 12.6008 11.0625 12.75ZM11.0625 9.75C11.0625 9.89918 11.0032 10.0423 10.8977 10.1477C10.7923 10.2532 10.6492 10.3125 10.5 10.3125H6.75C6.60082 10.3125 6.45774 10.2532 6.35225 10.1477C6.24676 10.0423 6.1875 9.89918 6.1875 9.75C6.1875 9.60082 6.24676 9.45774 6.35225 9.35225C6.45774 9.24676 6.60082 9.1875 6.75 9.1875H10.5C10.6492 9.1875 10.7923 9.24676 10.8977 9.35225C11.0032 9.45774 11.0625 9.60082 11.0625 9.75Z" fill="#1D1D1D"/>
</svg>
