<svg width="22" height="22" viewBox="0 0 22 22" fill="none" xmlns="http://www.w3.org/2000/svg">
<g clip-path="url(#clip0_1425_10303)">
<path d="M7.22734 16.5387C6.58281 16.3066 5.86523 16.4055 5.31094 16.8137C4.95859 17.0715 4.35273 17.4496 3.61797 17.7891C3.85859 17.1574 4.04336 16.4441 4.10352 15.6664C4.14648 15.1121 3.96172 14.5621 3.59648 14.141C2.59531 13.0109 2.0625 11.6875 2.0625 10.3125C2.0625 6.89648 5.6418 3.4375 11 3.4375C16.3582 3.4375 19.9375 6.89648 19.9375 10.3125C19.9375 13.7285 16.3582 17.1875 11 17.1875C9.64219 17.1875 8.36602 16.9512 7.22734 16.5387ZM1.13008 18.2102C1.06133 18.3262 0.988281 18.4422 0.910938 18.5582L0.898047 18.5797L0.691797 18.8762C0.541406 19.0781 0.378125 19.2758 0.20625 19.4562C0.00859376 19.6539 -0.0472656 19.9461 0.0601562 20.2039C0.167578 20.4617 0.416797 20.6293 0.696094 20.6293C0.915234 20.6293 1.13438 20.6164 1.35352 20.5949L1.38359 20.5906C1.57266 20.5691 1.76172 20.5434 1.95078 20.509C1.98516 20.5047 2.01953 20.4961 2.05391 20.4875C2.81875 20.3371 3.55352 20.0793 4.20664 19.7957C5.19063 19.366 6.02852 18.8547 6.53984 18.4809C7.90625 18.975 9.41875 19.25 11.0129 19.25C17.0887 19.25 22.0129 15.2496 22.0129 10.3125C22.0129 5.37539 17.0758 1.375 11 1.375C4.92422 1.375 0 5.37539 0 10.3125C0 12.2504 0.760547 14.0422 2.04961 15.5074C1.96797 16.5602 1.55977 17.4969 1.13008 18.2102ZM6.1875 11.6875C6.55217 11.6875 6.90191 11.5426 7.15977 11.2848C7.41763 11.0269 7.5625 10.6772 7.5625 10.3125C7.5625 9.94783 7.41763 9.59809 7.15977 9.34023C6.90191 9.08237 6.55217 8.9375 6.1875 8.9375C5.82283 8.9375 5.47309 9.08237 5.21523 9.34023C4.95737 9.59809 4.8125 9.94783 4.8125 10.3125C4.8125 10.6772 4.95737 11.0269 5.21523 11.2848C5.47309 11.5426 5.82283 11.6875 6.1875 11.6875ZM12.375 10.3125C12.375 9.94783 12.2301 9.59809 11.9723 9.34023C11.7144 9.08237 11.3647 8.9375 11 8.9375C10.6353 8.9375 10.2856 9.08237 10.0277 9.34023C9.76987 9.59809 9.625 9.94783 9.625 10.3125C9.625 10.6772 9.76987 11.0269 10.0277 11.2848C10.2856 11.5426 10.6353 11.6875 11 11.6875C11.3647 11.6875 11.7144 11.5426 11.9723 11.2848C12.2301 11.0269 12.375 10.6772 12.375 10.3125ZM15.8125 11.6875C16.1772 11.6875 16.5269 11.5426 16.7848 11.2848C17.0426 11.0269 17.1875 10.6772 17.1875 10.3125C17.1875 9.94783 17.0426 9.59809 16.7848 9.34023C16.5269 9.08237 16.1772 8.9375 15.8125 8.9375C15.4478 8.9375 15.0981 9.08237 14.8402 9.34023C14.5824 9.59809 14.4375 9.94783 14.4375 10.3125C14.4375 10.6772 14.5824 11.0269 14.8402 11.2848C15.0981 11.5426 15.4478 11.6875 15.8125 11.6875Z" fill="#1D1D1D" fill-opacity="0.5"/>
</g>
<defs>
<clipPath id="clip0_1425_10303">
<rect width="22" height="22" fill="white"/>
</clipPath>
</defs>
</svg>
