<svg width="24" height="24" viewBox="0 0 24 24" fill="none" xmlns="http://www.w3.org/2000/svg">
<path d="M10.7451 2.46378L10.7451 2.46376C11.0954 2.16596 11.5402 2.00244 12 2.00244C12.4598 2.00244 12.9046 2.16596 13.2549 2.46376L13.2549 2.46378L20.5674 8.67901C20.7814 8.86088 20.9532 9.08709 21.0711 9.34196L21.5249 9.13209L21.0711 9.34196C21.1889 9.59683 21.25 9.87428 21.25 10.1551V19.8751C21.25 20.2397 21.1051 20.5895 20.8473 20.8473C20.5894 21.1052 20.2397 21.2501 19.875 21.2501H16.875C16.5103 21.2501 16.1606 21.1052 15.9027 20.8473C15.6449 20.5895 15.5 20.2397 15.5 19.8751V15.0001C15.5 14.4712 15.2905 13.9638 14.9174 13.589C14.5443 13.2142 14.0379 13.0024 13.509 13.0001H13.5068L10.4925 13L10.49 13.0001C9.9613 13.0027 9.45516 13.2146 9.08225 13.5894C8.70933 13.9642 8.49999 14.4714 8.5 15.0001V19.8751C8.5 20.0556 8.46443 20.2344 8.39533 20.4012C8.32623 20.5681 8.22495 20.7196 8.09727 20.8473C7.96959 20.975 7.81801 21.0763 7.65119 21.1454L7.84253 21.6073L7.65119 21.1454C7.48437 21.2145 7.30557 21.2501 7.125 21.2501H4.125C3.76033 21.2501 3.41059 21.1052 3.15273 20.8473C2.89487 20.5895 2.75 20.2397 2.75 19.8751V10.1551C2.75 10.1551 2.75 10.1551 2.75 10.1551C2.75002 9.87426 2.81107 9.59682 2.92893 9.34196C3.04679 9.08709 3.21865 8.86088 3.4326 8.67901L10.7451 2.46378Z" stroke="#1D1D1D"/>
</svg>
