<svg width="24" height="24" viewBox="0 0 24 24" fill="none" xmlns="http://www.w3.org/2000/svg">
<path d="M12 8V12L14.5 14.5" stroke="black" stroke-width="1.5" stroke-linecap="round" stroke-linejoin="round"/>
<path d="M4.338 6.87102L3.588 6.87402C3.58879 7.07172 3.66761 7.26112 3.80731 7.40101C3.94701 7.5409 4.1363 7.61997 4.334 7.62102L4.338 6.87102ZM6.88 7.63302C6.97849 7.63348 7.07611 7.61454 7.16728 7.57727C7.25845 7.54001 7.34139 7.48515 7.41136 7.41583C7.48132 7.34651 7.53695 7.26409 7.57507 7.17327C7.61319 7.08245 7.63304 6.98501 7.6335 6.88652C7.63396 6.78803 7.61502 6.69041 7.57775 6.59924C7.54048 6.50807 7.48562 6.42514 7.41631 6.35517C7.34699 6.2852 7.26456 6.22957 7.17375 6.19145C7.08293 6.15334 6.98549 6.13348 6.887 6.13302L6.88 7.63302ZM5.075 4.32102C5.07394 4.12211 4.9939 3.93177 4.8525 3.79186C4.7111 3.65196 4.51991 3.57396 4.321 3.57502C4.12209 3.57608 3.93174 3.65612 3.79184 3.79752C3.65194 3.93892 3.57394 4.13011 3.575 4.32902L5.075 4.32102ZM3.75 12C3.75 11.8011 3.67098 11.6103 3.53033 11.4697C3.38968 11.329 3.19891 11.25 3 11.25C2.80109 11.25 2.61032 11.329 2.46967 11.4697C2.32902 11.6103 2.25 11.8011 2.25 12H3.75ZM16.875 20.445C16.9639 20.3977 17.0423 20.333 17.1056 20.2547C17.1689 20.1764 17.2158 20.0862 17.2435 19.9894C17.2712 19.8926 17.2792 19.7912 17.2668 19.6913C17.2545 19.5914 17.2222 19.495 17.1719 19.4078C17.1215 19.3206 17.0541 19.2445 16.9737 19.1839C16.8933 19.1234 16.8015 19.0796 16.7038 19.0553C16.6061 19.0309 16.5045 19.0265 16.4051 19.0423C16.3056 19.058 16.2104 19.0937 16.125 19.147L16.875 20.445ZM19.147 16.125C19.0936 16.2104 19.058 16.3056 19.0423 16.4051C19.0265 16.5045 19.0309 16.6061 19.0553 16.7038C19.0796 16.8015 19.1233 16.8933 19.1839 16.9737C19.2445 17.0541 19.3206 17.1215 19.4078 17.1719C19.495 17.2223 19.5914 17.2546 19.6913 17.2669C19.7912 17.2792 19.8926 17.2713 19.9894 17.2435C20.0862 17.2158 20.1764 17.1689 20.2547 17.1056C20.333 17.0423 20.3977 16.9639 20.445 16.875L19.147 16.125ZM5.14 5.07002C4.99864 5.21006 4.9187 5.40051 4.91776 5.59949C4.91682 5.79846 4.99497 5.98966 5.135 6.13102C5.27503 6.27238 5.46549 6.35233 5.66446 6.35326C5.86344 6.3542 6.05464 6.27606 6.196 6.13602L5.14 5.07002ZM18.862 5.13702C15.042 1.31702 8.869 1.27902 5.074 5.07402L6.134 6.13302C9.334 2.93402 14.557 2.95302 17.802 6.19802L18.862 5.13702ZM5.074 5.07402L3.808 6.34002L4.868 7.40002L6.135 6.13502L5.074 5.07402ZM4.334 7.62102L6.88 7.63302L6.887 6.13302L4.342 6.12102L4.334 7.62102ZM5.088 6.86702L5.075 4.32102L3.575 4.32902L3.588 6.87402L5.088 6.86702ZM12 3.75002C14.188 3.75002 16.2865 4.61922 17.8336 6.16639C19.3808 7.71357 20.25 9.81199 20.25 12H21.75C21.75 9.41416 20.7228 6.93421 18.8943 5.10573C17.0658 3.27725 14.5859 2.25002 12 2.25002V3.75002ZM12 20.25C9.81196 20.25 7.71354 19.3808 6.16637 17.8337C4.61919 16.2865 3.75 14.1881 3.75 12H2.25C2.25 14.5859 3.27723 17.0658 5.10571 18.8943C6.93419 20.7228 9.41414 21.75 12 21.75V20.25ZM16.125 19.147C14.8714 19.8721 13.4482 20.2527 12 20.25V21.75C13.775 21.75 15.44 21.275 16.875 20.445L16.125 19.147ZM20.25 12C20.2526 13.4482 19.8721 14.8714 19.147 16.125L20.445 16.875C21.3022 15.3935 21.7524 13.7117 21.75 12H20.25ZM6.196 6.13602C7.73891 4.60417 9.82581 3.7469 12 3.75002V2.25002C9.43036 2.24671 6.96394 3.25997 5.14 5.07002L6.196 6.13602Z" fill="black"/>
</svg>
