<svg width="20" height="22" viewBox="0 0 20 22" fill="none" xmlns="http://www.w3.org/2000/svg">
<path d="M9.99999 0.712526C9.08913 0.711685 8.21099 1.05211 7.53871 1.6667C6.86642 2.28128 6.44877 3.12542 6.36809 4.03271C6.28741 4.94 6.54955 5.84459 7.10284 6.56816C7.65613 7.29173 8.46041 7.78177 9.35714 7.94167V10.5714H5.49999C4.9885 10.5714 4.49796 10.7746 4.13629 11.1362C3.77461 11.4979 3.57142 11.9885 3.57142 12.5V14.0565C2.67519 14.2172 1.87158 14.7075 1.31883 15.4311C0.766081 16.1546 0.504245 17.0588 0.584882 17.9658C0.665519 18.8727 1.08279 19.7166 1.75452 20.3312C2.42625 20.9459 3.30377 21.2868 4.21428 21.2868C5.12479 21.2868 6.00231 20.9459 6.67404 20.3312C7.34577 19.7166 7.76304 18.8727 7.84368 17.9658C7.92431 17.0588 7.66248 16.1546 7.10972 15.4311C6.55697 14.7075 5.75336 14.2172 4.85714 14.0565V12.5C4.85714 12.3295 4.92487 12.1659 5.04542 12.0454C5.16598 11.9248 5.3295 11.8571 5.49999 11.8571H14.5C14.6705 11.8571 14.834 11.9248 14.9546 12.0454C15.0751 12.1659 15.1428 12.3295 15.1428 12.5V14.0565C14.2466 14.2172 13.443 14.7075 12.8903 15.4311C12.3375 16.1546 12.0757 17.0588 12.1563 17.9658C12.2369 18.8727 12.6542 19.7166 13.3259 20.3312C13.9977 20.9459 14.8752 21.2868 15.7857 21.2868C16.6962 21.2868 17.5737 20.9459 18.2455 20.3312C18.9172 19.7166 19.3345 18.8727 19.4151 17.9658C19.4957 17.0588 19.2339 16.1546 18.6812 15.4311C18.1284 14.7075 17.3248 14.2172 16.4286 14.0565V12.5C16.4286 11.9885 16.2254 11.4979 15.8637 11.1362C15.502 10.7746 15.0115 10.5714 14.5 10.5714H10.6428V7.94167C11.5377 7.77966 12.3397 7.28887 12.8911 6.56572C13.4426 5.84257 13.7037 4.93934 13.6232 4.03349C13.5426 3.12764 13.1262 2.28465 12.4558 1.67016C11.7854 1.05566 10.9094 0.714082 9.99999 0.712526ZM7.64285 4.35538C7.64285 3.73023 7.89119 3.13068 8.33324 2.68863C8.77529 2.24658 9.37484 1.99824 9.99999 1.99824C10.6251 1.99824 11.2247 2.24658 11.6667 2.68863C12.1088 3.13068 12.3571 3.73023 12.3571 4.35538C12.3571 4.98054 12.1088 5.58009 11.6667 6.02214C11.2247 6.46419 10.6251 6.71253 9.99999 6.71253C9.37484 6.71253 8.77529 6.46419 8.33324 6.02214C7.89119 5.58009 7.64285 4.98054 7.64285 4.35538ZM1.85714 17.6428C1.85714 17.0177 2.10548 16.4181 2.54753 15.9761C2.98958 15.534 3.58913 15.2857 4.21428 15.2857C4.83943 15.2857 5.43898 15.534 5.88103 15.9761C6.32308 16.4181 6.57142 17.0177 6.57142 17.6428C6.57142 18.268 6.32308 18.8675 5.88103 19.3096C5.43898 19.7516 4.83943 20 4.21428 20C3.58913 20 2.98958 19.7516 2.54753 19.3096C2.10548 18.8675 1.85714 18.268 1.85714 17.6428ZM15.7857 15.2857C16.4109 15.2857 17.0104 15.534 17.4525 15.9761C17.8945 16.4181 18.1429 17.0177 18.1429 17.6428C18.1429 18.268 17.8945 18.8675 17.4525 19.3096C17.0104 19.7516 16.4109 20 15.7857 20C15.1606 20 14.561 19.7516 14.119 19.3096C13.6769 18.8675 13.4286 18.268 13.4286 17.6428C13.4286 17.0177 13.6769 16.4181 14.119 15.9761C14.561 15.534 15.1606 15.2857 15.7857 15.2857Z" fill="#1D1D1D"/>
</svg>
