<svg width="28" height="28" viewBox="0 0 28 28" fill="none" xmlns="http://www.w3.org/2000/svg">
<path d="M14 0.666672C6.64 0.666672 0.666668 6.64 0.666668 14C0.666668 21.36 6.64 27.3333 14 27.3333C21.36 27.3333 27.3333 21.36 27.3333 14C27.3333 6.64 21.36 0.666672 14 0.666672ZM10.6667 17.56V10.44C10.6667 9.38667 11.84 8.74667 12.72 9.32L18.2533 12.88C18.4405 13.0009 18.5943 13.1667 18.7009 13.3624C18.8074 13.558 18.8632 13.7772 18.8632 14C18.8632 14.2228 18.8074 14.442 18.7009 14.6376C18.5943 14.8333 18.4405 14.9991 18.2533 15.12L12.72 18.68C11.84 19.2533 10.6667 18.6133 10.6667 17.56Z" fill="#5C40CC"/>
</svg>
