<svg width="20" height="20" viewBox="0 0 20 20" fill="none" xmlns="http://www.w3.org/2000/svg">
<path d="M9.67082 4.81831L9.86249 2.84415C9.93832 2.05081 10.6792 1.51248 11.4275 1.70581C12.5533 1.99748 13.3442 3.04331 13.3442 4.24248V6.77165C13.3442 7.33415 13.3442 7.61581 13.4658 7.82165C13.535 7.93915 13.63 8.03831 13.7433 8.10915C13.9433 8.23498 14.2158 8.23498 14.76 8.23498H15.09C16.5092 8.23498 17.2183 8.23498 17.655 8.55998C17.9825 8.80415 18.2133 9.16165 18.305 9.56665C18.4267 10.1083 18.1542 10.7858 17.6083 12.1391L17.3367 12.8141C17.1791 13.2051 17.1146 13.6273 17.1483 14.0475C17.3417 16.4425 15.4425 18.46 13.1208 18.3275L4.43415 17.8283C3.48499 17.7741 3.01082 17.7466 2.58249 17.3675C2.15332 16.9883 2.07249 16.5975 1.91165 15.8166C1.56935 14.1555 1.58497 12.4405 1.95749 10.7858C2.19332 9.74581 3.18665 9.18581 4.21249 9.31915C6.93249 9.66915 9.39832 7.63581 9.67082 4.81831Z" stroke="white" stroke-width="2" stroke-linecap="round" stroke-linejoin="round"/>
<path d="M5.83331 9.58331L5.71915 9.96415C4.98007 12.4279 5.01994 15.0598 5.83331 17.5" stroke="white" stroke-width="2" stroke-linecap="round" stroke-linejoin="round"/>
</svg>
