<svg width="24" height="24" viewBox="0 0 24 24" fill="none" xmlns="http://www.w3.org/2000/svg">
<path d="M15 5.00005L19 9.00005M13 7.00005L8.70005 2.70005C8.24842 2.2506 7.6372 1.99829 7.00005 1.99829C6.36289 1.99829 5.75167 2.2506 5.30005 2.70005L2.70005 5.30005C2.2506 5.75167 1.99829 6.36289 1.99829 7.00005C1.99829 7.6372 2.2506 8.24842 2.70005 8.70005L7.00005 13M8.00005 6.00005L10 4.00005M18 16L20 14M2.00005 22L7.50005 20.5L21.17 6.83005C21.7005 6.29961 21.9985 5.58019 21.9985 4.83005C21.9985 4.0799 21.7005 3.36048 21.17 2.83005C20.6396 2.29961 19.9202 2.00162 19.17 2.00162C18.4199 2.00162 17.7005 2.29961 17.17 2.83005L3.50005 16.5L2.00005 22Z" stroke="#1D1D1D" stroke-width="1.5" stroke-linecap="round" stroke-linejoin="round"/>
<path d="M17 11L21.3 15.3C22.24 16.24 22.24 17.76 21.3 18.7L18.7 21.3C17.76 22.24 16.24 22.24 15.3 21.3L11 17" stroke="#1D1D1D" stroke-width="1.5" stroke-linecap="round" stroke-linejoin="round"/>
</svg>
