<svg width="14" height="14" viewBox="0 0 14 14" fill="none" xmlns="http://www.w3.org/2000/svg">
<circle cx="7" cy="7" r="7" fill="#0D6EFD"/>
<path d="M10.6667 6.33301C10.6667 6.1562 10.5965 5.98663 10.4714 5.8616C10.3464 5.73658 10.1769 5.66634 10 5.66634H7.89337L8.21337 4.14301C8.22004 4.10967 8.22337 4.07301 8.22337 4.03634C8.22337 3.89967 8.16671 3.77301 8.07671 3.68301L7.72337 3.33301L5.53004 5.52634C5.40671 5.64967 5.33337 5.81634 5.33337 5.99967V9.33301C5.33337 9.50982 5.40361 9.67939 5.52864 9.80441C5.65366 9.92944 5.82323 9.99967 6.00004 9.99967H9.00004C9.27671 9.99967 9.51337 9.83301 9.61337 9.59301L10.62 7.24301C10.65 7.16634 10.6667 7.08634 10.6667 6.99967V6.33301ZM3.33337 9.99967H4.66671V5.99967H3.33337V9.99967Z" fill="white"/>
</svg>
