<svg width="19" height="19" viewBox="0 0 19 19" fill="none" xmlns="http://www.w3.org/2000/svg">
<path d="M17.8472 12.8557L13.4306 10.8766L13.4184 10.871C13.1892 10.7729 12.939 10.7336 12.6907 10.7565C12.4424 10.7794 12.2037 10.8639 11.9963 11.0022C11.9718 11.0184 11.9484 11.0359 11.9259 11.0547L9.64407 13.0001C8.19845 12.2979 6.70595 10.8166 6.00376 9.38974L7.95188 7.07318C7.97063 7.04974 7.98845 7.0263 8.00532 7.00099C8.14072 6.79409 8.22287 6.55692 8.24446 6.31059C8.26605 6.06427 8.22641 5.81642 8.12907 5.58912V5.57787L6.14438 1.1538C6.0157 0.856865 5.79444 0.609506 5.51362 0.448653C5.2328 0.2878 4.9075 0.22208 4.58626 0.261304C3.31592 0.428467 2.14986 1.05234 1.30588 2.01639C0.461903 2.98045 -0.00228837 4.21876 8.4831e-06 5.50005C8.4831e-06 12.9438 6.05626 19.0001 13.5 19.0001C14.7813 19.0023 16.0196 18.5382 16.9837 17.6942C17.9477 16.8502 18.5716 15.6841 18.7388 14.4138C18.7781 14.0927 18.7125 13.7674 18.5518 13.4866C18.3911 13.2058 18.144 12.9845 17.8472 12.8557ZM13.5 17.5001C10.3185 17.4966 7.26825 16.2312 5.01856 13.9815C2.76888 11.7318 1.50348 8.68159 1.50001 5.50005C1.49648 4.58458 1.82631 3.69911 2.42789 3.00903C3.02947 2.31895 3.86167 1.87143 4.76907 1.75005C4.7687 1.7538 4.7687 1.75756 4.76907 1.7613L6.73782 6.16755L4.80001 8.48693C4.78034 8.50956 4.76247 8.5337 4.74657 8.55912C4.60549 8.7756 4.52273 9.02486 4.5063 9.28274C4.48988 9.54061 4.54035 9.79836 4.65282 10.031C5.5022 11.7682 7.25251 13.5054 9.00845 14.3538C9.24279 14.4652 9.50203 14.5139 9.76083 14.4952C10.0196 14.4765 10.2692 14.3909 10.485 14.2469C10.5091 14.2307 10.5322 14.2132 10.5544 14.1944L12.8334 12.2501L17.2397 14.2235H17.25C17.1301 15.1322 16.6833 15.9661 15.9931 16.5691C15.3028 17.1722 14.4166 17.5031 13.5 17.5001Z" fill="#1D1D1D"/>
</svg>
