<svg width="20" height="20" viewBox="0 0 20 20" fill="none" xmlns="http://www.w3.org/2000/svg">
<path d="M9.67082 4.81834L9.86249 2.84417C9.93832 2.05084 10.6792 1.5125 11.4275 1.70584C12.5533 1.9975 13.3442 3.04334 13.3442 4.2425V6.77167C13.3442 7.33417 13.3442 7.61584 13.4658 7.82167C13.535 7.93917 13.63 8.03834 13.7433 8.10917C13.9433 8.235 14.2158 8.235 14.76 8.235H15.09C16.5092 8.235 17.2183 8.235 17.655 8.56C17.9825 8.80417 18.2133 9.16167 18.305 9.56667C18.4267 10.1083 18.1542 10.7858 17.6083 12.1392L17.3367 12.8142C17.1791 13.2051 17.1146 13.6274 17.1483 14.0475C17.3417 16.4425 15.4425 18.46 13.1208 18.3275L4.43415 17.8283C3.48499 17.7742 3.01082 17.7467 2.58249 17.3675C2.15332 16.9883 2.07249 16.5975 1.91165 15.8167C1.56935 14.1555 1.58497 12.4405 1.95749 10.7858C2.19332 9.74584 3.18665 9.18584 4.21249 9.31917C6.93249 9.66917 9.39832 7.63584 9.67082 4.81834Z" stroke="#1D1D1D" stroke-width="2" stroke-linecap="round" stroke-linejoin="round"/>
<path d="M5.83331 9.58334L5.71915 9.96417C4.98007 12.4279 5.01994 15.0598 5.83331 17.5" stroke="#1D1D1D" stroke-width="2" stroke-linecap="round" stroke-linejoin="round"/>
</svg>
