<svg width="12" height="12" viewBox="0 0 12 12" fill="none" xmlns="http://www.w3.org/2000/svg">
<g clip-path="url(#clip0_931_5194)">
<path d="M2.90616 5.17364C2.95694 5.17364 3.01358 5.18145 3.07608 5.19707C3.13858 5.2127 3.20108 5.23418 3.26358 5.26153C3.32608 5.28887 3.38858 5.31426 3.45108 5.3377C3.51358 5.36114 3.57022 5.38457 3.621 5.40801L3.52725 5.41973C3.496 5.42364 3.4628 5.42559 3.42764 5.42559C3.36123 5.42559 3.30069 5.41582 3.246 5.39629C3.19131 5.37676 3.14053 5.35137 3.09366 5.32012C3.04678 5.28887 2.99991 5.26543 2.95303 5.24981C2.90616 5.23418 2.86319 5.22246 2.82412 5.21465C2.78506 5.21465 2.74991 5.22246 2.71866 5.23809C2.68741 5.25371 2.65616 5.27129 2.62491 5.29082C2.62491 5.2752 2.61123 5.26739 2.58389 5.26739C2.61123 5.24004 2.66202 5.21856 2.73623 5.20293C2.81045 5.18731 2.86709 5.17754 2.90616 5.17364ZM3.69717 5.43731C3.85733 5.43731 4.00381 5.46465 4.13662 5.51934C4.08194 5.53887 4.02725 5.55449 3.97256 5.56621C3.91787 5.57793 3.86123 5.58574 3.80264 5.58965C3.72452 5.58965 3.6542 5.58184 3.5917 5.56621C3.61123 5.53496 3.63077 5.51543 3.6503 5.50762C3.66983 5.49981 3.68545 5.47637 3.69717 5.43731ZM5.99991 -0.000193082C6.55069 -0.000193082 7.07998 0.0720726 7.5878 0.216604C8.09561 0.361135 8.57217 0.562307 9.01748 0.820119C9.4628 1.07793 9.86905 1.39239 10.2362 1.76348C10.6034 2.13457 10.9159 2.53887 11.1737 2.97637C11.4315 3.41387 11.6347 3.89043 11.7831 4.40606C11.9315 4.92168 12.0038 5.45293 11.9999 5.99981C11.9999 6.55059 11.9276 7.07989 11.7831 7.5877C11.6386 8.09551 11.4374 8.57207 11.1796 9.01739C10.9218 9.4627 10.6073 9.86895 10.2362 10.2361C9.86514 10.6033 9.46084 10.9158 9.02334 11.1736C8.58584 11.4314 8.10928 11.6346 7.59366 11.783C7.07803 11.9314 6.54678 12.0037 5.99991 11.9998C5.44912 11.9998 4.91983 11.9275 4.41202 11.783C3.9042 11.6385 3.42764 11.4373 2.98233 11.1795C2.53702 10.9217 2.13077 10.6072 1.76358 10.2361C1.39639 9.86504 1.08389 9.46074 0.826078 9.02324C0.568265 8.58574 0.36514 8.10918 0.216703 7.59356C0.0682655 7.07793 -0.00400015 6.54668 -9.39002e-05 5.99981C-9.39002e-05 5.44903 0.0721717 4.91973 0.216703 4.41192C0.361234 3.9041 0.562406 3.42754 0.820219 2.98223C1.07803 2.53692 1.39248 2.13067 1.76358 1.76348C2.13467 1.39629 2.53897 1.08379 2.97647 0.825979C3.41397 0.568166 3.89053 0.365041 4.40616 0.216604C4.92178 0.0681663 5.45303 -0.00409933 5.99991 -0.000193082ZM10.4648 3.25176C10.4101 3.16582 10.3554 3.08379 10.3007 3.00567C10.246 2.92754 10.1894 2.84746 10.1308 2.76543C10.123 2.80059 10.1132 2.82598 10.1015 2.8416C10.0898 2.85723 10.0819 2.89239 10.078 2.94707C10.078 2.98223 10.0917 3.01543 10.119 3.04668C10.1464 3.07793 10.1815 3.10918 10.2245 3.14043C10.2675 3.17168 10.3105 3.19512 10.3534 3.21074C10.3964 3.22637 10.4335 3.24004 10.4648 3.25176ZM10.0605 2.67754C10.0605 2.70879 10.0546 2.73028 10.0429 2.74199H10.078C10.0937 2.74199 10.1054 2.74395 10.1132 2.74785L10.0605 2.67754ZM5.99991 11.2498C6.44522 11.2498 6.88077 11.1932 7.30655 11.0799C7.73233 10.9666 8.13467 10.8064 8.51358 10.5994C8.89248 10.3924 9.24405 10.1385 9.56827 9.8377C9.89248 9.53692 10.1757 9.20098 10.4179 8.82989C10.3671 8.7127 10.3183 8.59356 10.2714 8.47246C10.2245 8.35137 10.2011 8.22637 10.2011 8.09746C10.2011 7.95684 10.2069 7.84356 10.2187 7.75762C10.2304 7.67168 10.244 7.59551 10.2597 7.5291C10.2753 7.4627 10.2831 7.40606 10.2831 7.35918C10.2831 7.31231 10.2773 7.25176 10.2655 7.17754C10.2538 7.10332 10.2206 7.02324 10.1659 6.93731C10.1112 6.85137 10.039 6.73028 9.94913 6.57403C9.95303 6.54668 9.95889 6.50957 9.9667 6.4627C9.97452 6.41582 9.98233 6.36699 9.99014 6.31621C9.99795 6.26543 9.99991 6.21856 9.996 6.17559C9.99209 6.13262 9.98233 6.09551 9.9667 6.06426C9.86514 6.05254 9.75967 6.03106 9.6503 5.99981C9.54092 5.96856 9.44327 5.92168 9.35733 5.85918L9.39248 5.82989C9.3417 5.8416 9.29092 5.85723 9.24014 5.87676C9.18936 5.89629 9.14053 5.91778 9.09366 5.94121C9.04678 5.96465 8.996 5.98028 8.94131 5.98809C8.88663 5.9959 8.83389 6.00371 8.78311 6.01153L8.68936 5.99981L8.70694 5.95879C8.65225 5.97442 8.59366 5.99395 8.53116 6.01739C8.46866 6.04082 8.40811 6.05254 8.34952 6.05254C8.31045 6.05254 8.25381 6.03887 8.17959 6.01153C8.10537 5.98418 8.03116 5.95098 7.95694 5.91192C7.88272 5.87285 7.81631 5.82989 7.75772 5.78301C7.69912 5.73614 7.66983 5.69121 7.66983 5.64824L7.68155 5.63067C7.66202 5.60723 7.63662 5.58574 7.60537 5.56621C7.57412 5.54668 7.54483 5.52715 7.51748 5.50762C7.49014 5.48809 7.46475 5.4666 7.44131 5.44317C7.41787 5.41973 7.40811 5.39239 7.41202 5.36114L7.47647 5.3084L7.3417 5.29082L7.29483 5.11504C7.30264 5.13457 7.32022 5.14239 7.34756 5.13848C7.37491 5.13457 7.39639 5.12676 7.41202 5.11504L7.20108 5.00371L7.34756 4.62871C7.29287 4.42559 7.2792 4.26934 7.30655 4.15996C7.33389 4.05059 7.38662 3.96074 7.46475 3.89043C7.54287 3.82012 7.62881 3.74981 7.72256 3.67949C7.81631 3.60918 7.91202 3.51348 8.00967 3.39239L7.99209 3.32207L8.37881 2.85332L8.4667 2.8416C8.57608 2.8416 8.69912 2.8377 8.83584 2.82989C8.97256 2.82207 9.11123 2.8084 9.25186 2.78887C9.39248 2.76934 9.53116 2.74981 9.66788 2.73028C9.80459 2.71074 9.92959 2.68535 10.0429 2.6541C9.91787 2.50567 9.78702 2.36504 9.6503 2.23223C9.51358 2.09942 9.36709 1.97246 9.21084 1.85137C9.16787 1.86699 9.11514 1.88848 9.05264 1.91582C8.99014 1.94317 8.92764 1.97832 8.86514 2.02129C8.80264 2.06426 8.75381 2.11114 8.71866 2.16192C8.6835 2.2127 8.66202 2.26543 8.6542 2.32012L8.68936 2.43145C8.61905 2.54473 8.54092 2.61504 8.45498 2.64239C8.36905 2.66973 8.28116 2.68535 8.19131 2.68926C8.10147 2.69317 8.00772 2.69317 7.91006 2.68926C7.81241 2.68535 7.71866 2.70293 7.62881 2.74199L7.53506 2.54278L7.62295 2.20293L7.52334 2.05645L8.53702 1.74004C8.49405 1.63067 8.42373 1.54864 8.32608 1.49395C8.22842 1.43926 8.121 1.41192 8.00381 1.41192V1.35332L8.33194 1.30059C7.96866 1.1209 7.5917 0.984182 7.20108 0.890432C6.81045 0.796682 6.41006 0.749807 5.99991 0.749807C5.66006 0.749807 5.32412 0.78301 4.99209 0.849416C4.66006 0.915823 4.33975 1.01153 4.03116 1.13653C3.72256 1.26153 3.42373 1.41778 3.13467 1.60528C2.84561 1.79278 2.58194 2.00371 2.34366 2.23809C2.44522 2.23809 2.52334 2.26348 2.57803 2.31426C2.63272 2.36504 2.6835 2.42168 2.73037 2.48418C2.77725 2.54668 2.82608 2.60332 2.87686 2.6541C2.92764 2.70489 2.996 2.73223 3.08194 2.73614L3.17569 2.66582L3.16397 2.53692L3.35733 2.26153L3.20498 1.82793C3.22452 1.81621 3.25381 1.79668 3.29287 1.76934C3.33194 1.74199 3.36514 1.72832 3.39248 1.72832C3.50967 1.72832 3.59952 1.73418 3.66202 1.7459C3.72452 1.75762 3.7792 1.7791 3.82608 1.81035C3.87295 1.8416 3.91397 1.88653 3.94912 1.94512C3.98428 2.00371 4.03897 2.07793 4.11319 2.16778L4.32412 2.00371C4.36319 2.01934 4.42569 2.04473 4.51162 2.07989C4.59756 2.11504 4.68545 2.15801 4.7753 2.20879C4.86514 2.25957 4.94131 2.31231 5.00381 2.36699C5.06631 2.42168 5.09952 2.47246 5.10342 2.51934C5.10342 2.57793 5.08194 2.62481 5.03897 2.65996C4.996 2.69512 4.93936 2.72442 4.86905 2.74785C4.79873 2.77129 4.72647 2.78887 4.65225 2.80059C4.57803 2.81231 4.50381 2.82793 4.42959 2.84746C4.35537 2.86699 4.29873 2.88653 4.25967 2.90606C4.22061 2.92559 4.19717 2.95879 4.18936 3.00567L4.5292 3.11699C4.45108 3.1834 4.36709 3.24395 4.27725 3.29864C4.18741 3.35332 4.09366 3.4041 3.996 3.45098L4.01944 3.55059L3.48037 3.76153V3.92559L3.43936 3.94317L3.46866 3.73809L3.44522 3.73223C3.41787 3.73223 3.40225 3.73809 3.39834 3.74981C3.39444 3.76153 3.39248 3.7752 3.39248 3.79082C3.39248 3.80645 3.39639 3.82207 3.4042 3.8377C3.41202 3.85332 3.41397 3.86504 3.41006 3.87285L3.33389 3.83184L3.34561 3.85528C3.34561 3.86699 3.35147 3.88457 3.36319 3.90801C3.37491 3.93145 3.39053 3.95293 3.41006 3.97246C3.42959 3.99199 3.44522 4.01153 3.45694 4.03106C3.46866 4.05059 3.47647 4.06035 3.48037 4.06035C3.48037 4.07207 3.47256 4.08379 3.45694 4.09551C3.44131 4.10723 3.42178 4.11504 3.39834 4.11895C3.37491 4.12285 3.35928 4.12871 3.35147 4.13653C3.34366 4.14434 3.34366 4.14629 3.35147 4.14239C3.40616 4.14239 3.41787 4.14629 3.38662 4.1541C3.35537 4.16192 3.30655 4.18145 3.24014 4.2127C3.17373 4.24395 3.11319 4.28887 3.0585 4.34746C3.00381 4.40606 2.97256 4.49199 2.96475 4.60528C2.96475 4.67168 2.9667 4.73614 2.97061 4.79864C2.97452 4.86114 2.97256 4.92559 2.96475 4.99199C2.91006 4.84356 2.82803 4.73028 2.71866 4.65215C2.60928 4.57403 2.47647 4.53496 2.32022 4.53496L2.06827 4.5584L2.19131 4.64043C2.12491 4.63262 2.05655 4.62481 1.98623 4.61699C1.91592 4.60918 1.84366 4.60723 1.76944 4.61114C1.69522 4.61504 1.62881 4.63067 1.57022 4.65801C1.51162 4.68535 1.45303 4.72637 1.39444 4.78106L1.35928 5.04473C1.35928 5.16973 1.38662 5.27129 1.44131 5.34942C1.496 5.42754 1.5917 5.46856 1.72842 5.47246C1.84561 5.47246 1.96084 5.45489 2.07412 5.41973C2.18741 5.38457 2.29873 5.34356 2.40811 5.29668C2.37295 5.38262 2.33389 5.46465 2.29092 5.54278C2.24795 5.6209 2.2167 5.70684 2.19717 5.80059L2.27334 5.83574C2.36709 5.77324 2.45303 5.76348 2.53116 5.80645C2.60928 5.84942 2.68545 5.91192 2.75967 5.99395C2.83389 6.07598 2.91006 6.15996 2.98819 6.2459C3.06631 6.33184 3.1503 6.39434 3.24014 6.4334L3.04092 6.53887L2.57217 6.2752C2.57608 6.28301 2.57998 6.30059 2.58389 6.32793C2.5878 6.35528 2.58584 6.36114 2.57803 6.34551L2.36709 5.98809C2.24209 5.98418 2.10928 5.96465 1.96866 5.92949C1.82803 5.89434 1.68545 5.84746 1.54092 5.78887C1.39639 5.73028 1.26162 5.66582 1.13662 5.59551C1.01162 5.5252 0.89639 5.45098 0.790922 5.37285L0.749906 5.99981C0.749906 6.47637 0.814359 6.94121 0.943265 7.39434C1.07217 7.84746 1.25381 8.27324 1.48819 8.67168C1.72256 9.07012 2.00967 9.4334 2.34952 9.76153C2.68936 10.0897 3.06631 10.3689 3.48037 10.5994C3.46084 10.5174 3.45889 10.4354 3.47452 10.3533C3.49014 10.2713 3.50967 10.1893 3.53311 10.1072C3.55655 10.0252 3.58194 9.94317 3.60928 9.86114C3.63662 9.7791 3.6503 9.69512 3.6503 9.60918C3.6503 9.48418 3.63077 9.35332 3.5917 9.2166C3.55264 9.07988 3.50577 8.94121 3.45108 8.80059C3.39639 8.65996 3.33584 8.52129 3.26944 8.38457C3.20303 8.24785 3.1503 8.11895 3.11123 7.99785C3.07217 7.87676 3.04092 7.76348 3.01748 7.65801C2.99405 7.55254 3.00577 7.46074 3.05264 7.38262L2.96475 7.3416C2.98819 7.28692 3.01944 7.23418 3.0585 7.1834C3.09756 7.13262 3.13858 7.08184 3.18155 7.03106C3.22452 6.98028 3.25772 6.92559 3.28116 6.86699C3.30459 6.8084 3.31827 6.74981 3.32217 6.69121C3.32217 6.65215 3.31436 6.61114 3.29873 6.56817C3.28311 6.5252 3.26944 6.48418 3.25772 6.44512L3.38077 6.47442C3.44717 6.32207 3.53702 6.21856 3.6503 6.16387C3.76358 6.10918 3.90616 6.07989 4.07803 6.07598C4.09756 6.07598 4.13858 6.08379 4.20108 6.09942C4.26358 6.11504 4.32998 6.13653 4.4003 6.16387C4.47061 6.19121 4.53702 6.2127 4.59952 6.22832C4.66202 6.24395 4.70889 6.25957 4.74014 6.2752C4.74014 6.30254 4.75577 6.32012 4.78702 6.32793C4.81827 6.33574 4.83584 6.34942 4.83975 6.36895L4.82803 6.41582C4.83975 6.41973 4.86709 6.4334 4.91006 6.45684C4.95303 6.48028 4.99991 6.50957 5.05069 6.54473C5.10147 6.57989 5.14639 6.61114 5.18545 6.63848C5.22452 6.66582 5.25186 6.68731 5.26748 6.70293C5.3378 6.70293 5.4335 6.72637 5.55459 6.77324C5.67569 6.82012 5.8085 6.87871 5.95303 6.94903C6.09756 7.01934 6.24014 7.10332 6.38077 7.20098C6.52139 7.29864 6.6542 7.39629 6.7792 7.49395C6.9042 7.5916 6.99991 7.68926 7.06631 7.78692C7.13272 7.88457 7.17178 7.97051 7.1835 8.04473L6.98428 8.25567C6.99991 8.45489 6.98623 8.60723 6.94327 8.7127C6.9003 8.81817 6.83389 8.90606 6.74405 8.97637C6.6542 9.04668 6.55069 9.10528 6.4335 9.15215C6.31631 9.19903 6.18936 9.26543 6.05264 9.35137C6.05264 9.42949 6.03311 9.51348 5.99405 9.60332C5.95498 9.69317 5.90616 9.7791 5.84756 9.86114C5.78897 9.94317 5.71866 10.0115 5.63662 10.0662C5.55459 10.1209 5.47256 10.1482 5.39053 10.1482L5.14444 9.96074C5.15225 9.96856 5.15225 9.98223 5.14444 10.0018C5.13662 10.0213 5.12686 10.0252 5.11514 10.0135C5.1542 10.0877 5.16397 10.1736 5.14444 10.2713C5.12491 10.3689 5.0917 10.4686 5.04483 10.5701C4.99795 10.6717 4.94522 10.7674 4.88662 10.8572C4.82803 10.9471 4.7753 11.0232 4.72842 11.0857C4.93936 11.1404 5.1503 11.1814 5.36123 11.2088C5.57217 11.2361 5.78506 11.2498 5.99991 11.2498Z" fill="#1D1D1D" fill-opacity="0.5"/>
</g>
<defs>
<clipPath id="clip0_931_5194">
<rect width="12" height="12" fill="white"/>
</clipPath>
</defs>
</svg>
